<?xml version="1.0" encoding="UTF-8" standalone="no"?>
<!DOCTYPE svg PUBLIC "-//W3C//DTD SVG 1.1//EN" "http://www.w3.org/Graphics/SVG/1.1/DTD/svg11.dtd">
<svg xmlns="http://www.w3.org/2000/svg" version="1.1" viewBox="0.00 0.00 1536.00 154.00">
<g stroke-width="2.00" fill="none" stroke-linecap="butt">
<path stroke="#809ebc" vector-effect="non-scaling-stroke" d="
  M 278.00 154.00
  Q 272.17 150.19 266.46 146.38
  Q 258.88 141.33 255.40 138.12
  Q 245.19 128.70 239.80 115.22
  Q 237.64 109.83 235.77 101.14
  Q 235.00 97.56 235.16 94.33
  Q 235.38 89.94 235.18 87.44
  Q 234.80 82.57 236.20 77.26
  Q 238.21 69.68 240.66 65.46
  Q 250.65 48.29 268.04 36.79
  Q 273.60 33.11 279.78 31.77
  Q 296.80 28.05 314.23 31.81
  Q 320.57 33.18 326.49 36.07
  Q 330.06 37.82 331.79 38.61
  Q 333.49 39.38 332.47 37.82
  C 323.35 23.84 310.16 12.93 294.41 7.40
  C 286.66 4.68 277.62 3.51 269.01 3.01
  Q 251.44 2.00 233.50 3.94
  Q 224.65 4.90 215.07 7.57
  Q 185.27 15.86 160.17 33.42
  Q 147.52 42.27 135.89 52.14
  Q 119.00 66.48 103.35 81.34
  Q 85.10 98.68 72.04 110.78
  Q 60.27 121.69 50.62 129.35
  Q 38.29 139.13 30.64 143.38
  Q 20.94 148.77 18.50 150.51
  Q 17.74 151.05 17.57 151.77
  A 0.52 0.52 0.0 0 0 18.20 152.39
  Q 26.87 150.26 34.48 147.68
  Q 47.16 143.36 57.65 134.88
  Q 68.86 125.82 74.00 121.00
  Q 96.21 100.16 104.72 92.96
  C 117.28 82.35 130.43 72.47 144.63 66.14
  C 167.89 55.77 199.75 52.64 221.71 68.33
  Q 228.49 73.17 231.71 79.94
  Q 232.10 80.77 232.05 81.04
  Q 231.85 82.17 230.67 81.50
  Q 226.58 79.18 223.55 78.40
  C 215.47 76.31 204.63 76.11 196.51 79.05
  Q 179.77 85.12 174.36 103.03
  Q 173.25 106.72 173.08 112.77
  Q 172.88 120.14 173.36 122.63
  Q 177.28 142.70 195.78 151.00
  Q 199.94 152.86 204.50 153.21
  Q 210.76 153.70 217.04 154.00"
/>
<path stroke="#dadbdc" vector-effect="non-scaling-stroke" d="
  M 138.43 154.00
  Q 139.10 153.62 137.64 152.49
  Q 136.92 151.93 136.49 151.42
  Q 133.30 147.53 131.84 144.99
  Q 126.74 136.11 130.04 127.28
  C 133.33 118.47 143.38 112.51 152.62 114.63
  Q 155.12 115.20 157.98 115.86
  Q 159.71 116.26 158.26 115.24
  C 155.16 113.05 152.16 109.94 148.48 108.57
  Q 144.49 107.08 142.78 107.06
  Q 133.09 106.97 131.49 107.05
  Q 126.62 107.28 121.44 108.91
  Q 110.50 112.37 101.54 119.30
  C 96.65 123.09 94.11 125.01 90.51 128.29
  Q 76.11 141.40 63.57 152.33
  Q 63.22 152.63 61.76 153.26
  Q 61.14 153.53 61.78 153.75
  L 62.50 154.00"
/>
<path stroke="#809ebc" vector-effect="non-scaling-stroke" d="
  M 670.38 31.19
  A 0.55 0.55 0.0 0 0 669.83 30.64
  L 661.91 30.64
  A 0.55 0.55 0.0 0 0 661.36 31.19
  L 661.36 140.69
  A 0.55 0.55 0.0 0 0 661.91 141.24
  L 669.83 141.24
  A 0.55 0.55 0.0 0 0 670.38 140.69
  L 670.38 31.19"
/>
<path stroke="#809ebc" vector-effect="non-scaling-stroke" d="
  M 1171.65 31.06
  A 0.39 0.39 0.0 0 0 1171.26 30.67
  L 1163.16 30.67
  A 0.39 0.39 0.0 0 0 1162.77 31.06
  L 1162.77 140.86
  A 0.39 0.39 0.0 0 0 1163.16 141.25
  L 1171.26 141.25
  A 0.39 0.39 0.0 0 0 1171.65 140.86
  L 1171.65 31.06"
/>
<path stroke="#809ebc" vector-effect="non-scaling-stroke" d="
  M 878.15 31.20
  A 0.56 0.56 0.0 0 0 877.59 30.64
  L 869.77 30.64
  A 0.56 0.56 0.0 0 0 869.21 31.20
  L 869.21 140.66
  A 0.56 0.56 0.0 0 0 869.77 141.22
  L 877.59 141.22
  A 0.56 0.56 0.0 0 0 878.15 140.66
  L 878.15 31.20"
/>
<path stroke="#809ebc" vector-effect="non-scaling-stroke" d="
  M 1055.05 54.13
  Q 1055.21 54.28 1055.34 54.10
  L 1060.60 47.32
  A 0.27 0.26 -50.8 0 0 1060.57 46.96
  Q 1045.16 33.57 1026.29 38.32
  C 1013.13 41.64 1004.87 52.89 1006.77 66.55
  Q 1007.94 74.96 1014.41 80.34
  Q 1019.01 84.17 1022.56 85.97
  Q 1038.44 94.02 1038.47 94.04
  C 1045.97 98.31 1052.16 103.37 1053.26 112.45
  Q 1054.65 123.96 1046.11 130.22
  Q 1042.03 133.21 1036.30 133.95
  C 1025.42 135.36 1014.15 131.26 1006.92 123.15
  Q 1006.31 122.46 1005.75 123.19
  L 1001.11 129.17
  Q 1000.55 129.88 1001.23 130.48
  C 1002.16 131.32 1003.32 132.70 1004.29 133.45
  Q 1017.60 143.63 1033.96 143.11
  C 1041.18 142.88 1049.49 139.92 1054.58 135.33
  Q 1066.48 124.60 1063.24 108.25
  Q 1061.75 100.74 1056.74 95.44
  Q 1052.59 91.04 1048.99 88.93
  Q 1043.58 85.75 1031.57 79.94
  C 1024.06 76.30 1015.77 70.60 1016.64 61.11
  Q 1017.65 50.07 1028.50 46.95
  Q 1043.12 42.74 1055.05 54.13"
/>
<path stroke="#809ebc" vector-effect="non-scaling-stroke" d="
  M 323.27 55.50
  Q 323.75 55.89 325.10 57.07
  Q 325.60 57.51 326.01 56.99
  L 330.59 51.07
  A 0.75 0.75 0.0 0 0 330.50 50.05
  Q 323.83 44.13 316.58 41.26
  Q 296.64 33.39 276.32 41.09
  Q 257.88 48.07 248.66 66.17
  C 240.31 82.54 241.30 102.78 250.91 118.20
  C 260.54 133.65 276.80 142.45 295.04 143.14
  Q 315.41 143.91 331.17 130.52
  Q 331.34 130.37 331.21 130.20
  L 326.86 124.11
  Q 326.68 123.85 326.43 124.06
  C 311.78 136.75 288.93 137.62 273.08 127.23
  C 259.38 118.24 252.29 103.64 253.44 87.07
  Q 254.15 76.90 258.31 68.85
  Q 267.79 50.51 287.88 47.02
  Q 308.35 43.46 323.27 55.50"
/>
<path stroke="#809ebc" vector-effect="non-scaling-stroke" d="
  M 751.50 141.29
  Q 753.94 141.29 755.94 141.16
  Q 756.38 141.14 756.38 140.69
  L 756.38 48.39
  A 0.36 0.36 0.0 0 1 756.74 48.03
  L 785.33 48.03
  Q 785.94 48.03 785.94 47.42
  L 785.94 39.96
  Q 785.94 39.33 785.30 39.33
  Q 771.67 39.29 751.52 39.29
  Q 731.37 39.28 717.74 39.31
  Q 717.10 39.31 717.10 39.94
  L 717.10 47.40
  Q 717.10 48.01 717.71 48.01
  L 746.30 48.03
  A 0.36 0.36 0.0 0 1 746.66 48.39
  L 746.61 140.69
  Q 746.61 141.14 747.05 141.16
  Q 749.05 141.29 751.50 141.29"
/>
<path stroke="#809ebc" vector-effect="non-scaling-stroke" d="
  M 807.13 56.62
  A 6.91 6.91 0.0 0 0 800.22 49.71
  A 6.91 6.91 0.0 0 0 793.31 56.62
  A 6.91 6.91 0.0 0 0 800.22 63.53
  A 6.91 6.91 0.0 0 0 807.13 56.62"
/>
<path stroke="#809ebc" vector-effect="non-scaling-stroke" d="
  M 1322.36 56.61
  A 6.91 6.91 0.0 0 0 1315.45 49.70
  A 6.91 6.91 0.0 0 0 1308.54 56.61
  A 6.91 6.91 0.0 0 0 1315.45 63.52
  A 6.91 6.91 0.0 0 0 1322.36 56.61"
/>
<path stroke="#809ebc" vector-effect="non-scaling-stroke" d="
  M 554.35 84.31
  A 0.47 0.47 0.0 0 1 554.82 84.78
  L 554.79 140.81
  A 0.47 0.47 0.0 0 0 555.26 141.28
  L 563.23 141.31
  A 0.47 0.47 0.0 0 0 563.70 140.84
  L 563.70 84.76
  A 0.47 0.47 0.0 0 1 564.17 84.29
  L 579.02 84.35
  A 0.47 0.47 0.0 0 0 579.49 83.88
  L 579.46 76.99
  A 0.47 0.47 0.0 0 0 578.99 76.52
  L 564.19 76.53
  A 0.47 0.47 0.0 0 1 563.72 76.06
  L 563.71 53.80
  A 0.47 0.47 0.0 0 0 563.24 53.33
  L 555.24 53.41
  A 0.47 0.47 0.0 0 0 554.77 53.88
  L 554.80 76.06
  A 0.47 0.47 0.0 0 1 554.33 76.53
  L 543.28 76.54
  A 0.47 0.47 0.0 0 0 542.81 77.01
  L 542.79 83.87
  A 0.47 0.47 0.0 0 0 543.26 84.34
  L 554.35 84.31"
/>
<path stroke="#809ebc" vector-effect="non-scaling-stroke" d="
  M 830.77 75.98
  A 0.52 0.52 0.0 0 1 830.25 76.50
  L 819.30 76.56
  A 0.52 0.52 0.0 0 0 818.79 77.07
  L 818.73 83.81
  A 0.52 0.52 0.0 0 0 819.25 84.33
  L 830.22 84.31
  A 0.52 0.52 0.0 0 1 830.74 84.83
  L 830.73 140.81
  A 0.52 0.52 0.0 0 0 831.26 141.33
  L 839.23 141.24
  A 0.52 0.52 0.0 0 0 839.74 140.72
  L 839.76 84.84
  A 0.52 0.52 0.0 0 1 840.28 84.32
  L 854.99 84.38
  A 0.52 0.52 0.0 0 0 855.51 83.86
  L 855.49 76.98
  A 0.52 0.52 0.0 0 0 854.97 76.46
  L 840.27 76.54
  A 0.52 0.52 0.0 0 1 839.75 76.02
  L 839.79 53.87
  A 0.52 0.52 0.0 0 0 839.27 53.35
  L 831.26 53.35
  A 0.52 0.52 0.0 0 0 830.74 53.87
  L 830.77 75.98"
/>
<path stroke="#809ebc" vector-effect="non-scaling-stroke" d="
  M 1281.71 84.83
  A 0.52 0.52 0.0 0 1 1282.23 84.31
  L 1296.95 84.35
  A 0.52 0.52 0.0 0 0 1297.47 83.83
  L 1297.42 77.01
  A 0.52 0.52 0.0 0 0 1296.90 76.49
  L 1282.22 76.48
  A 0.52 0.52 0.0 0 1 1281.70 75.96
  L 1281.70 53.84
  A 0.52 0.52 0.0 0 0 1281.18 53.32
  L 1273.29 53.35
  A 0.52 0.52 0.0 0 0 1272.77 53.87
  L 1272.79 75.93
  A 0.52 0.52 0.0 0 1 1272.27 76.46
  L 1261.32 76.56
  A 0.52 0.52 0.0 0 0 1260.80 77.08
  L 1260.72 83.79
  A 0.52 0.52 0.0 0 0 1261.24 84.32
  L 1272.22 84.33
  A 0.52 0.52 0.0 0 1 1272.74 84.85
  L 1272.76 140.79
  A 0.52 0.52 0.0 0 0 1273.28 141.31
  L 1281.18 141.30
  A 0.52 0.52 0.0 0 0 1281.70 140.78
  L 1281.71 84.83"
/>
<path stroke="#809ebc" vector-effect="non-scaling-stroke" d="
  M 502.95 93.92
  Q 500.94 88.35 505.65 84.41
  C 512.12 78.98 522.56 82.87 527.93 88.34
  A 0.41 0.41 0.0 0 0 528.57 88.26
  L 531.95 82.40
  A 0.67 0.67 0.0 0 0 531.80 81.56
  Q 525.96 76.50 518.53 75.06
  C 509.39 73.29 498.38 76.05 494.65 85.14
  C 487.88 101.65 505.32 106.93 516.15 112.65
  C 521.86 115.66 525.64 119.84 523.83 126.87
  C 522.52 131.98 518.47 134.89 513.24 135.48
  Q 501.41 136.84 492.82 127.50
  Q 492.70 127.36 492.58 127.51
  L 488.08 133.30
  Q 487.87 133.58 488.12 133.83
  Q 500.73 145.66 516.43 142.57
  Q 530.88 139.73 533.39 125.97
  C 534.36 120.64 532.59 114.42 528.23 110.48
  Q 524.20 106.84 521.65 105.63
  Q 511.77 100.93 508.25 99.12
  Q 504.05 96.96 502.95 93.92"
/>
<path stroke="#809ebc" vector-effect="non-scaling-stroke" d="
  M 1526.06 125.54
  Q 1524.34 134.48 1514.92 135.47
  Q 1503.16 136.71 1494.83 127.62
  A 0.26 0.26 0.0 0 0 1494.43 127.64
  L 1490.09 133.22
  A 0.58 0.58 0.0 0 0 1490.15 133.99
  Q 1500.30 143.58 1513.58 143.17
  C 1524.15 142.84 1533.41 137.17 1535.12 126.19
  C 1537.56 110.50 1523.71 105.62 1512.39 100.32
  C 1508.10 98.31 1503.68 95.48 1504.42 89.92
  Q 1505.10 84.85 1509.91 82.92
  C 1516.66 80.20 1524.38 83.12 1529.49 87.89
  Q 1530.24 88.60 1530.75 87.71
  L 1533.62 82.74
  A 1.19 1.17 -55.2 0 0 1533.36 81.25
  Q 1526.75 75.70 1518.05 74.68
  C 1508.84 73.60 1498.84 77.37 1495.83 86.80
  Q 1493.55 93.97 1497.40 99.63
  C 1499.12 102.15 1503.30 105.32 1506.09 106.68
  Q 1515.08 111.07 1518.40 112.86
  C 1523.30 115.49 1527.20 119.58 1526.06 125.54"
/>
<path stroke="#809ebc" vector-effect="non-scaling-stroke" d="
  M 408.6110 107.6961
  A 34.50 34.37 -1.9 0 0 372.9905 74.4889
  A 34.50 34.37 -1.9 0 0 339.6490 109.9839
  A 34.50 34.37 -1.9 0 0 375.2695 143.1911
  A 34.50 34.37 -1.9 0 0 408.6110 107.6961"
/>
<path stroke="#809ebc" vector-effect="non-scaling-stroke" d="
  M 465.76 105.03
  C 464.41 104.08 463.16 102.83 461.79 102.13
  Q 448.47 95.43 434.33 100.54
  C 425.13 103.87 418.56 111.13 419.30 121.26
  C 420.10 132.02 427.30 139.45 437.76 142.00
  Q 445.49 143.89 455.95 142.37
  Q 466.17 140.88 474.19 134.71
  Q 475.11 134.00 475.11 132.51
  Q 475.14 114.56 475.12 100.50
  C 475.12 92.79 474.32 85.39 468.31 79.98
  Q 464.30 76.37 456.81 75.26
  Q 441.54 73.00 427.68 79.19
  Q 426.94 79.52 427.35 80.23
  L 430.54 85.77
  A 0.62 0.62 0.0 0 0 431.33 86.02
  C 439.43 82.45 452.68 80.29 460.34 85.50
  Q 464.97 88.64 465.84 93.40
  Q 466.76 98.46 466.19 104.83
  Q 466.15 105.30 465.76 105.03"
/>
<path stroke="#809ebc" vector-effect="non-scaling-stroke" d="
  M 632.16 104.97
  A 0.22 0.22 0.0 0 1 631.80 105.13
  Q 626.00 100.18 618.38 98.90
  C 607.65 97.11 594.77 100.04 588.21 109.44
  C 584.37 114.96 584.37 122.35 586.87 128.41
  C 594.09 145.85 617.85 145.27 632.02 139.50
  Q 636.27 137.77 640.21 134.62
  Q 640.60 134.31 640.71 133.82
  Q 641.12 132.14 641.11 130.50
  Q 640.95 105.48 641.02 99.25
  Q 641.07 94.71 640.01 89.86
  C 635.66 70.00 606.87 73.07 593.54 79.22
  Q 592.82 79.54 593.21 80.23
  L 596.49 85.89
  Q 596.70 86.26 597.09 86.09
  C 605.38 82.43 619.50 80.00 627.11 86.13
  Q 631.86 89.96 632.10 95.68
  Q 632.27 99.76 632.16 104.97"
/>
<path stroke="#809ebc" vector-effect="non-scaling-stroke" d="
  M 905.01 109.50
  L 957.20 109.50
  A 0.52 0.51 0.6 0 0 957.72 109.00
  C 958.20 89.80 947.85 73.77 926.77 74.71
  C 911.81 75.38 900.48 84.26 896.86 98.55
  C 893.92 110.12 895.67 122.60 903.35 131.82
  C 912.26 142.53 927.07 145.00 940.59 141.56
  Q 949.25 139.35 955.23 133.10
  Q 955.87 132.43 955.33 131.67
  L 952.34 127.48
  Q 951.77 126.68 951.06 127.37
  Q 943.03 135.31 930.79 135.25
  C 915.43 135.17 904.54 125.53 904.72 109.80
  A 0.30 0.29 -90.0 0 1 905.01 109.50"
/>
<path stroke="#809ebc" vector-effect="non-scaling-stroke" d="
  M 1145.5398 108.7195
  A 34.51 34.36 -0.2 0 0 1110.9101 74.4802
  A 34.51 34.36 -0.2 0 0 1076.5202 108.9605
  A 34.51 34.36 -0.2 0 0 1111.1499 143.1998
  A 34.51 34.36 -0.2 0 0 1145.5398 108.7195"
/>
<path stroke="#809ebc" vector-effect="non-scaling-stroke" d="
  M 1405.4088 107.1547
  A 34.50 34.36 -2.8 0 0 1369.2715 74.5210
  A 34.50 34.36 -2.8 0 0 1336.4912 110.5253
  A 34.50 34.36 -2.8 0 0 1372.6285 143.1590
  A 34.50 34.36 -2.8 0 0 1405.4088 107.1547"
/>
<path stroke="#809ebc" vector-effect="non-scaling-stroke" d="
  M 1430.79 82.28
  L 1430.79 77.76
  Q 1430.79 76.34 1429.37 76.34
  L 1423.27 76.34
  Q 1421.85 76.34 1421.85 77.84
  L 1421.85 140.91
  A 0.38 0.38 0.0 0 0 1422.23 141.29
  L 1430.52 141.29
  A 0.28 0.28 0.0 0 0 1430.80 141.01
  Q 1430.72 114.00 1430.78 93.83
  C 1430.79 91.45 1431.34 90.90 1433.03 89.54
  Q 1441.38 82.78 1451.50 83.15
  C 1463.76 83.59 1467.12 91.23 1467.13 102.31
  Q 1467.16 120.16 1467.13 140.63
  Q 1467.13 141.30 1467.80 141.30
  L 1475.45 141.30
  Q 1476.05 141.30 1476.05 140.70
  Q 1476.12 102.31 1476.13 99.75
  Q 1476.16 93.88 1474.84 89.17
  Q 1471.51 77.33 1459.05 75.19
  C 1450.09 73.66 1440.64 75.43 1433.44 81.05
  Q 1431.69 82.41 1431.31 82.60
  Q 1430.79 82.86 1430.79 82.28"
/>
<path stroke="#809ebc" vector-effect="non-scaling-stroke" d="
  M 804.54 76.80
  A 0.42 0.42 0.0 0 0 804.12 76.38
  L 796.00 76.38
  A 0.42 0.42 0.0 0 0 795.58 76.80
  L 795.58 140.80
  A 0.42 0.42 0.0 0 0 796.00 141.22
  L 804.12 141.22
  A 0.42 0.42 0.0 0 0 804.54 140.80
  L 804.54 76.80"
/>
<path stroke="#809ebc" vector-effect="non-scaling-stroke" d="
  M 1237.63 130.43
  C 1231.66 134.91 1221.90 135.90 1215.02 134.53
  C 1204.53 132.45 1201.46 124.03 1201.64 114.50
  Q 1201.71 110.90 1201.64 76.86
  A 0.45 0.45 0.0 0 0 1201.19 76.41
  L 1193.25 76.41
  Q 1192.75 76.41 1192.74 76.91
  Q 1192.66 93.44 1192.70 110.25
  Q 1192.73 121.63 1193.24 124.19
  Q 1194.78 131.85 1200.62 136.86
  C 1207.28 142.57 1216.56 143.65 1225.37 142.86
  Q 1238.37 141.69 1246.95 134.29
  A 1.07 1.05 -20.9 0 0 1247.32 133.49
  L 1247.32 76.72
  A 0.31 0.31 0.0 0 0 1247.01 76.41
  L 1238.72 76.41
  Q 1238.31 76.41 1238.31 76.82
  L 1238.31 129.08
  A 1.70 1.68 -18.7 0 1 1237.63 130.43"
/>
<path stroke="#809ebc" vector-effect="non-scaling-stroke" d="
  M 1319.76 76.79
  A 0.40 0.40 0.0 0 0 1319.36 76.39
  L 1311.18 76.39
  A 0.40 0.40 0.0 0 0 1310.78 76.79
  L 1310.78 140.83
  A 0.40 0.40 0.0 0 0 1311.18 141.23
  L 1319.36 141.23
  A 0.40 0.40 0.0 0 0 1319.76 140.83
  L 1319.76 76.79"
/>
<path stroke="#809ebc" vector-effect="non-scaling-stroke" d="
  M 377.0824 135.1746
  A 26.47 25.30 83.4 0 0 399.1723 105.9721
  A 26.47 25.30 83.4 0 0 370.9976 82.5854
  A 26.47 25.30 83.4 0 0 348.9077 111.7879
  A 26.47 25.30 83.4 0 0 377.0824 135.1746"
/>
<path stroke="#809ebc" vector-effect="non-scaling-stroke" d="
  M 431.97 129.27
  C 439.32 138.33 455.89 136.39 464.77 131.17
  C 466.30 130.27 466.31 129.45 466.32 127.75
  Q 466.32 123.57 466.28 114.94
  C 466.27 112.93 465.39 112.25 463.94 111.19
  Q 457.88 106.76 450.79 105.81
  C 442.33 104.69 430.18 107.85 428.78 117.74
  Q 427.86 124.20 431.97 129.27"
/>
<path stroke="#809ebc" vector-effect="non-scaling-stroke" d="
  M 628.96 110.50
  Q 621.26 105.85 614.62 105.59
  C 606.90 105.29 596.43 108.41 594.77 117.04
  C 593.03 126.09 599.38 133.46 608.26 134.99
  Q 620.80 137.14 631.32 130.77
  A 1.77 1.77 0.0 0 0 632.18 129.27
  Q 632.20 126.27 632.28 115.73
  Q 632.30 112.52 628.96 110.50"
/>
<path stroke="#809ebc" vector-effect="non-scaling-stroke" d="
  M 905.54 102.25
  L 948.23 102.25
  A 0.29 0.28 -4.2 0 0 948.52 101.93
  Q 947.79 96.81 945.51 92.41
  C 940.52 82.78 928.76 80.35 919.25 83.99
  Q 907.02 88.69 905.20 101.86
  A 0.35 0.34 -86.3 0 0 905.54 102.25"
/>
<path stroke="#809ebc" vector-effect="non-scaling-stroke" d="
  M 1113.7687 135.1852
  A 26.47 25.29 83.8 0 0 1136.0521 106.1387
  A 26.47 25.29 83.8 0 0 1108.0513 82.5548
  A 26.47 25.29 83.8 0 0 1085.7679 111.6013
  A 26.47 25.29 83.8 0 0 1113.7687 135.1852"
/>
<path stroke="#809ebc" vector-effect="non-scaling-stroke" d="
  M 1373.6158 135.1950
  A 26.46 25.29 84.0 0 0 1396.0015 106.2365
  A 26.46 25.29 84.0 0 0 1368.0842 82.5650
  A 26.46 25.29 84.0 0 0 1345.6985 111.5235
  A 26.46 25.29 84.0 0 0 1373.6158 135.1950"
/>
</g>
<g fill="#ffffff">
<path d="
  M 1536.00 0.00
  L 1536.00 154.00
  L 278.00 154.00
  Q 272.17 150.19 266.46 146.38
  Q 258.88 141.33 255.40 138.12
  Q 245.19 128.70 239.80 115.22
  Q 237.64 109.83 235.77 101.14
  Q 235.00 97.56 235.16 94.33
  Q 235.38 89.94 235.18 87.44
  Q 234.80 82.57 236.20 77.26
  Q 238.21 69.68 240.66 65.46
  Q 250.65 48.29 268.04 36.79
  Q 273.60 33.11 279.78 31.77
  Q 296.80 28.05 314.23 31.81
  Q 320.57 33.18 326.49 36.07
  Q 330.06 37.82 331.79 38.61
  Q 333.49 39.38 332.47 37.82
  C 323.35 23.84 310.16 12.93 294.41 7.40
  C 286.66 4.68 277.62 3.51 269.01 3.01
  Q 251.44 2.00 233.50 3.94
  Q 224.65 4.90 215.07 7.57
  Q 185.27 15.86 160.17 33.42
  Q 147.52 42.27 135.89 52.14
  Q 119.00 66.48 103.35 81.34
  Q 85.10 98.68 72.04 110.78
  Q 60.27 121.69 50.62 129.35
  Q 38.29 139.13 30.64 143.38
  Q 20.94 148.77 18.50 150.51
  Q 17.74 151.05 17.57 151.77
  A 0.52 0.52 0.0 0 0 18.20 152.39
  Q 26.87 150.26 34.48 147.68
  Q 47.16 143.36 57.65 134.88
  Q 68.86 125.82 74.00 121.00
  Q 96.21 100.16 104.72 92.96
  C 117.28 82.35 130.43 72.47 144.63 66.14
  C 167.89 55.77 199.75 52.64 221.71 68.33
  Q 228.49 73.17 231.71 79.94
  Q 232.10 80.77 232.05 81.04
  Q 231.85 82.17 230.67 81.50
  Q 226.58 79.18 223.55 78.40
  C 215.47 76.31 204.63 76.11 196.51 79.05
  Q 179.77 85.12 174.36 103.03
  Q 173.25 106.72 173.08 112.77
  Q 172.88 120.14 173.36 122.63
  Q 177.28 142.70 195.78 151.00
  Q 199.94 152.86 204.50 153.21
  Q 210.76 153.70 217.04 154.00
  L 138.43 154.00
  Q 139.10 153.62 137.64 152.49
  Q 136.92 151.93 136.49 151.42
  Q 133.30 147.53 131.84 144.99
  Q 126.74 136.11 130.04 127.28
  C 133.33 118.47 143.38 112.51 152.62 114.63
  Q 155.12 115.20 157.98 115.86
  Q 159.71 116.26 158.26 115.24
  C 155.16 113.05 152.16 109.94 148.48 108.57
  Q 144.49 107.08 142.78 107.06
  Q 133.09 106.97 131.49 107.05
  Q 126.62 107.28 121.44 108.91
  Q 110.50 112.37 101.54 119.30
  C 96.65 123.09 94.11 125.01 90.51 128.29
  Q 76.11 141.40 63.57 152.33
  Q 63.22 152.63 61.76 153.26
  Q 61.14 153.53 61.78 153.75
  L 62.50 154.00
  L 0.00 154.00
  L 0.00 0.00
  L 1536.00 0.00
  Z
  M 670.38 31.19
  A 0.55 0.55 0.0 0 0 669.83 30.64
  L 661.91 30.64
  A 0.55 0.55 0.0 0 0 661.36 31.19
  L 661.36 140.69
  A 0.55 0.55 0.0 0 0 661.91 141.24
  L 669.83 141.24
  A 0.55 0.55 0.0 0 0 670.38 140.69
  L 670.38 31.19
  Z
  M 1171.65 31.06
  A 0.39 0.39 0.0 0 0 1171.26 30.67
  L 1163.16 30.67
  A 0.39 0.39 0.0 0 0 1162.77 31.06
  L 1162.77 140.86
  A 0.39 0.39 0.0 0 0 1163.16 141.25
  L 1171.26 141.25
  A 0.39 0.39 0.0 0 0 1171.65 140.86
  L 1171.65 31.06
  Z
  M 878.15 31.20
  A 0.56 0.56 0.0 0 0 877.59 30.64
  L 869.77 30.64
  A 0.56 0.56 0.0 0 0 869.21 31.20
  L 869.21 140.66
  A 0.56 0.56 0.0 0 0 869.77 141.22
  L 877.59 141.22
  A 0.56 0.56 0.0 0 0 878.15 140.66
  L 878.15 31.20
  Z
  M 1055.05 54.13
  Q 1055.21 54.28 1055.34 54.10
  L 1060.60 47.32
  A 0.27 0.26 -50.8 0 0 1060.57 46.96
  Q 1045.16 33.57 1026.29 38.32
  C 1013.13 41.64 1004.87 52.89 1006.77 66.55
  Q 1007.94 74.96 1014.41 80.34
  Q 1019.01 84.17 1022.56 85.97
  Q 1038.44 94.02 1038.47 94.04
  C 1045.97 98.31 1052.16 103.37 1053.26 112.45
  Q 1054.65 123.96 1046.11 130.22
  Q 1042.03 133.21 1036.30 133.95
  C 1025.42 135.36 1014.15 131.26 1006.92 123.15
  Q 1006.31 122.46 1005.75 123.19
  L 1001.11 129.17
  Q 1000.55 129.88 1001.23 130.48
  C 1002.16 131.32 1003.32 132.70 1004.29 133.45
  Q 1017.60 143.63 1033.96 143.11
  C 1041.18 142.88 1049.49 139.92 1054.58 135.33
  Q 1066.48 124.60 1063.24 108.25
  Q 1061.75 100.74 1056.74 95.44
  Q 1052.59 91.04 1048.99 88.93
  Q 1043.58 85.75 1031.57 79.94
  C 1024.06 76.30 1015.77 70.60 1016.64 61.11
  Q 1017.65 50.07 1028.50 46.95
  Q 1043.12 42.74 1055.05 54.13
  Z
  M 323.27 55.50
  Q 323.75 55.89 325.10 57.07
  Q 325.60 57.51 326.01 56.99
  L 330.59 51.07
  A 0.75 0.75 0.0 0 0 330.50 50.05
  Q 323.83 44.13 316.58 41.26
  Q 296.64 33.39 276.32 41.09
  Q 257.88 48.07 248.66 66.17
  C 240.31 82.54 241.30 102.78 250.91 118.20
  C 260.54 133.65 276.80 142.45 295.04 143.14
  Q 315.41 143.91 331.17 130.52
  Q 331.34 130.37 331.21 130.20
  L 326.86 124.11
  Q 326.68 123.85 326.43 124.06
  C 311.78 136.75 288.93 137.62 273.08 127.23
  C 259.38 118.24 252.29 103.64 253.44 87.07
  Q 254.15 76.90 258.31 68.85
  Q 267.79 50.51 287.88 47.02
  Q 308.35 43.46 323.27 55.50
  Z
  M 751.50 141.29
  Q 753.94 141.29 755.94 141.16
  Q 756.38 141.14 756.38 140.69
  L 756.38 48.39
  A 0.36 0.36 0.0 0 1 756.74 48.03
  L 785.33 48.03
  Q 785.94 48.03 785.94 47.42
  L 785.94 39.96
  Q 785.94 39.33 785.30 39.33
  Q 771.67 39.29 751.52 39.29
  Q 731.37 39.28 717.74 39.31
  Q 717.10 39.31 717.10 39.94
  L 717.10 47.40
  Q 717.10 48.01 717.71 48.01
  L 746.30 48.03
  A 0.36 0.36 0.0 0 1 746.66 48.39
  L 746.61 140.69
  Q 746.61 141.14 747.05 141.16
  Q 749.05 141.29 751.50 141.29
  Z
  M 807.13 56.62
  A 6.91 6.91 0.0 0 0 800.22 49.71
  A 6.91 6.91 0.0 0 0 793.31 56.62
  A 6.91 6.91 0.0 0 0 800.22 63.53
  A 6.91 6.91 0.0 0 0 807.13 56.62
  Z
  M 1322.36 56.61
  A 6.91 6.91 0.0 0 0 1315.45 49.70
  A 6.91 6.91 0.0 0 0 1308.54 56.61
  A 6.91 6.91 0.0 0 0 1315.45 63.52
  A 6.91 6.91 0.0 0 0 1322.36 56.61
  Z
  M 554.35 84.31
  A 0.47 0.47 0.0 0 1 554.82 84.78
  L 554.79 140.81
  A 0.47 0.47 0.0 0 0 555.26 141.28
  L 563.23 141.31
  A 0.47 0.47 0.0 0 0 563.70 140.84
  L 563.70 84.76
  A 0.47 0.47 0.0 0 1 564.17 84.29
  L 579.02 84.35
  A 0.47 0.47 0.0 0 0 579.49 83.88
  L 579.46 76.99
  A 0.47 0.47 0.0 0 0 578.99 76.52
  L 564.19 76.53
  A 0.47 0.47 0.0 0 1 563.72 76.06
  L 563.71 53.80
  A 0.47 0.47 0.0 0 0 563.24 53.33
  L 555.24 53.41
  A 0.47 0.47 0.0 0 0 554.77 53.88
  L 554.80 76.06
  A 0.47 0.47 0.0 0 1 554.33 76.53
  L 543.28 76.54
  A 0.47 0.47 0.0 0 0 542.81 77.01
  L 542.79 83.87
  A 0.47 0.47 0.0 0 0 543.26 84.34
  L 554.35 84.31
  Z
  M 830.77 75.98
  A 0.52 0.52 0.0 0 1 830.25 76.50
  L 819.30 76.56
  A 0.52 0.52 0.0 0 0 818.79 77.07
  L 818.73 83.81
  A 0.52 0.52 0.0 0 0 819.25 84.33
  L 830.22 84.31
  A 0.52 0.52 0.0 0 1 830.74 84.83
  L 830.73 140.81
  A 0.52 0.52 0.0 0 0 831.26 141.33
  L 839.23 141.24
  A 0.52 0.52 0.0 0 0 839.74 140.72
  L 839.76 84.84
  A 0.52 0.52 0.0 0 1 840.28 84.32
  L 854.99 84.38
  A 0.52 0.52 0.0 0 0 855.51 83.86
  L 855.49 76.98
  A 0.52 0.52 0.0 0 0 854.97 76.46
  L 840.27 76.54
  A 0.52 0.52 0.0 0 1 839.75 76.02
  L 839.79 53.87
  A 0.52 0.52 0.0 0 0 839.27 53.35
  L 831.26 53.35
  A 0.52 0.52 0.0 0 0 830.74 53.87
  L 830.77 75.98
  Z
  M 1281.71 84.83
  A 0.52 0.52 0.0 0 1 1282.23 84.31
  L 1296.95 84.35
  A 0.52 0.52 0.0 0 0 1297.47 83.83
  L 1297.42 77.01
  A 0.52 0.52 0.0 0 0 1296.90 76.49
  L 1282.22 76.48
  A 0.52 0.52 0.0 0 1 1281.70 75.96
  L 1281.70 53.84
  A 0.52 0.52 0.0 0 0 1281.18 53.32
  L 1273.29 53.35
  A 0.52 0.52 0.0 0 0 1272.77 53.87
  L 1272.79 75.93
  A 0.52 0.52 0.0 0 1 1272.27 76.46
  L 1261.32 76.56
  A 0.52 0.52 0.0 0 0 1260.80 77.08
  L 1260.72 83.79
  A 0.52 0.52 0.0 0 0 1261.24 84.32
  L 1272.22 84.33
  A 0.52 0.52 0.0 0 1 1272.74 84.85
  L 1272.76 140.79
  A 0.52 0.52 0.0 0 0 1273.28 141.31
  L 1281.18 141.30
  A 0.52 0.52 0.0 0 0 1281.70 140.78
  L 1281.71 84.83
  Z
  M 502.95 93.92
  Q 500.94 88.35 505.65 84.41
  C 512.12 78.98 522.56 82.87 527.93 88.34
  A 0.41 0.41 0.0 0 0 528.57 88.26
  L 531.95 82.40
  A 0.67 0.67 0.0 0 0 531.80 81.56
  Q 525.96 76.50 518.53 75.06
  C 509.39 73.29 498.38 76.05 494.65 85.14
  C 487.88 101.65 505.32 106.93 516.15 112.65
  C 521.86 115.66 525.64 119.84 523.83 126.87
  C 522.52 131.98 518.47 134.89 513.24 135.48
  Q 501.41 136.84 492.82 127.50
  Q 492.70 127.36 492.58 127.51
  L 488.08 133.30
  Q 487.87 133.58 488.12 133.83
  Q 500.73 145.66 516.43 142.57
  Q 530.88 139.73 533.39 125.97
  C 534.36 120.64 532.59 114.42 528.23 110.48
  Q 524.20 106.84 521.65 105.63
  Q 511.77 100.93 508.25 99.12
  Q 504.05 96.96 502.95 93.92
  Z
  M 1526.06 125.54
  Q 1524.34 134.48 1514.92 135.47
  Q 1503.16 136.71 1494.83 127.62
  A 0.26 0.26 0.0 0 0 1494.43 127.64
  L 1490.09 133.22
  A 0.58 0.58 0.0 0 0 1490.15 133.99
  Q 1500.30 143.58 1513.58 143.17
  C 1524.15 142.84 1533.41 137.17 1535.12 126.19
  C 1537.56 110.50 1523.71 105.62 1512.39 100.32
  C 1508.10 98.31 1503.68 95.48 1504.42 89.92
  Q 1505.10 84.85 1509.91 82.92
  C 1516.66 80.20 1524.38 83.12 1529.49 87.89
  Q 1530.24 88.60 1530.75 87.71
  L 1533.62 82.74
  A 1.19 1.17 -55.2 0 0 1533.36 81.25
  Q 1526.75 75.70 1518.05 74.68
  C 1508.84 73.60 1498.84 77.37 1495.83 86.80
  Q 1493.55 93.97 1497.40 99.63
  C 1499.12 102.15 1503.30 105.32 1506.09 106.68
  Q 1515.08 111.07 1518.40 112.86
  C 1523.30 115.49 1527.20 119.58 1526.06 125.54
  Z
  M 408.6110 107.6961
  A 34.50 34.37 -1.9 0 0 372.9905 74.4889
  A 34.50 34.37 -1.9 0 0 339.6490 109.9839
  A 34.50 34.37 -1.9 0 0 375.2695 143.1911
  A 34.50 34.37 -1.9 0 0 408.6110 107.6961
  Z
  M 465.76 105.03
  C 464.41 104.08 463.16 102.83 461.79 102.13
  Q 448.47 95.43 434.33 100.54
  C 425.13 103.87 418.56 111.13 419.30 121.26
  C 420.10 132.02 427.30 139.45 437.76 142.00
  Q 445.49 143.89 455.95 142.37
  Q 466.17 140.88 474.19 134.71
  Q 475.11 134.00 475.11 132.51
  Q 475.14 114.56 475.12 100.50
  C 475.12 92.79 474.32 85.39 468.31 79.98
  Q 464.30 76.37 456.81 75.26
  Q 441.54 73.00 427.68 79.19
  Q 426.94 79.52 427.35 80.23
  L 430.54 85.77
  A 0.62 0.62 0.0 0 0 431.33 86.02
  C 439.43 82.45 452.68 80.29 460.34 85.50
  Q 464.97 88.64 465.84 93.40
  Q 466.76 98.46 466.19 104.83
  Q 466.15 105.30 465.76 105.03
  Z
  M 632.16 104.97
  A 0.22 0.22 0.0 0 1 631.80 105.13
  Q 626.00 100.18 618.38 98.90
  C 607.65 97.11 594.77 100.04 588.21 109.44
  C 584.37 114.96 584.37 122.35 586.87 128.41
  C 594.09 145.85 617.85 145.27 632.02 139.50
  Q 636.27 137.77 640.21 134.62
  Q 640.60 134.31 640.71 133.82
  Q 641.12 132.14 641.11 130.50
  Q 640.95 105.48 641.02 99.25
  Q 641.07 94.71 640.01 89.86
  C 635.66 70.00 606.87 73.07 593.54 79.22
  Q 592.82 79.54 593.21 80.23
  L 596.49 85.89
  Q 596.70 86.26 597.09 86.09
  C 605.38 82.43 619.50 80.00 627.11 86.13
  Q 631.86 89.96 632.10 95.68
  Q 632.27 99.76 632.16 104.97
  Z
  M 905.01 109.50
  L 957.20 109.50
  A 0.52 0.51 0.6 0 0 957.72 109.00
  C 958.20 89.80 947.85 73.77 926.77 74.71
  C 911.81 75.38 900.48 84.26 896.86 98.55
  C 893.92 110.12 895.67 122.60 903.35 131.82
  C 912.26 142.53 927.07 145.00 940.59 141.56
  Q 949.25 139.35 955.23 133.10
  Q 955.87 132.43 955.33 131.67
  L 952.34 127.48
  Q 951.77 126.68 951.06 127.37
  Q 943.03 135.31 930.79 135.25
  C 915.43 135.17 904.54 125.53 904.72 109.80
  A 0.30 0.29 -90.0 0 1 905.01 109.50
  Z
  M 1145.5398 108.7195
  A 34.51 34.36 -0.2 0 0 1110.9101 74.4802
  A 34.51 34.36 -0.2 0 0 1076.5202 108.9605
  A 34.51 34.36 -0.2 0 0 1111.1499 143.1998
  A 34.51 34.36 -0.2 0 0 1145.5398 108.7195
  Z
  M 1405.4088 107.1547
  A 34.50 34.36 -2.8 0 0 1369.2715 74.5210
  A 34.50 34.36 -2.8 0 0 1336.4912 110.5253
  A 34.50 34.36 -2.8 0 0 1372.6285 143.1590
  A 34.50 34.36 -2.8 0 0 1405.4088 107.1547
  Z
  M 1430.79 82.28
  L 1430.79 77.76
  Q 1430.79 76.34 1429.37 76.34
  L 1423.27 76.34
  Q 1421.85 76.34 1421.85 77.84
  L 1421.85 140.91
  A 0.38 0.38 0.0 0 0 1422.23 141.29
  L 1430.52 141.29
  A 0.28 0.28 0.0 0 0 1430.80 141.01
  Q 1430.72 114.00 1430.78 93.83
  C 1430.79 91.45 1431.34 90.90 1433.03 89.54
  Q 1441.38 82.78 1451.50 83.15
  C 1463.76 83.59 1467.12 91.23 1467.13 102.31
  Q 1467.16 120.16 1467.13 140.63
  Q 1467.13 141.30 1467.80 141.30
  L 1475.45 141.30
  Q 1476.05 141.30 1476.05 140.70
  Q 1476.12 102.31 1476.13 99.75
  Q 1476.16 93.88 1474.84 89.17
  Q 1471.51 77.33 1459.05 75.19
  C 1450.09 73.66 1440.64 75.43 1433.44 81.05
  Q 1431.69 82.41 1431.31 82.60
  Q 1430.79 82.86 1430.79 82.28
  Z
  M 804.54 76.80
  A 0.42 0.42 0.0 0 0 804.12 76.38
  L 796.00 76.38
  A 0.42 0.42 0.0 0 0 795.58 76.80
  L 795.58 140.80
  A 0.42 0.42 0.0 0 0 796.00 141.22
  L 804.12 141.22
  A 0.42 0.42 0.0 0 0 804.54 140.80
  L 804.54 76.80
  Z
  M 1237.63 130.43
  C 1231.66 134.91 1221.90 135.90 1215.02 134.53
  C 1204.53 132.45 1201.46 124.03 1201.64 114.50
  Q 1201.71 110.90 1201.64 76.86
  A 0.45 0.45 0.0 0 0 1201.19 76.41
  L 1193.25 76.41
  Q 1192.75 76.41 1192.74 76.91
  Q 1192.66 93.44 1192.70 110.25
  Q 1192.73 121.63 1193.24 124.19
  Q 1194.78 131.85 1200.62 136.86
  C 1207.28 142.57 1216.56 143.65 1225.37 142.86
  Q 1238.37 141.69 1246.95 134.29
  A 1.07 1.05 -20.9 0 0 1247.32 133.49
  L 1247.32 76.72
  A 0.31 0.31 0.0 0 0 1247.01 76.41
  L 1238.72 76.41
  Q 1238.31 76.41 1238.31 76.82
  L 1238.31 129.08
  A 1.70 1.68 -18.7 0 1 1237.63 130.43
  Z
  M 1319.76 76.79
  A 0.40 0.40 0.0 0 0 1319.36 76.39
  L 1311.18 76.39
  A 0.40 0.40 0.0 0 0 1310.78 76.79
  L 1310.78 140.83
  A 0.40 0.40 0.0 0 0 1311.18 141.23
  L 1319.36 141.23
  A 0.40 0.40 0.0 0 0 1319.76 140.83
  L 1319.76 76.79
  Z"
/>
<ellipse cx="0.00" cy="0.00" transform="translate(374.04,108.88) rotate(83.4)" rx="26.47" ry="25.30"/>
<path d="
  M 905.54 102.25
  A 0.35 0.34 -86.3 0 1 905.20 101.86
  Q 907.02 88.69 919.25 83.99
  C 928.76 80.35 940.52 82.78 945.51 92.41
  Q 947.79 96.81 948.52 101.93
  A 0.29 0.28 -4.2 0 1 948.23 102.25
  L 905.54 102.25
  Z"
/>
<ellipse cx="0.00" cy="0.00" transform="translate(1110.91,108.87) rotate(83.8)" rx="26.47" ry="25.29"/>
<ellipse cx="0.00" cy="0.00" transform="translate(1370.85,108.88) rotate(84.0)" rx="26.46" ry="25.29"/>
<path d="
  M 431.97 129.27
  Q 427.86 124.20 428.78 117.74
  C 430.18 107.85 442.33 104.69 450.79 105.81
  Q 457.88 106.76 463.94 111.19
  C 465.39 112.25 466.27 112.93 466.28 114.94
  Q 466.32 123.57 466.32 127.75
  C 466.31 129.45 466.30 130.27 464.77 131.17
  C 455.89 136.39 439.32 138.33 431.97 129.27
  Z"
/>
<path d="
  M 628.96 110.50
  Q 632.30 112.52 632.28 115.73
  Q 632.20 126.27 632.18 129.27
  A 1.77 1.77 0.0 0 1 631.32 130.77
  Q 620.80 137.14 608.26 134.99
  C 599.38 133.46 593.03 126.09 594.77 117.04
  C 596.43 108.41 606.90 105.29 614.62 105.59
  Q 621.26 105.85 628.96 110.50
  Z"
/>
</g>
<g fill="#003d78">
<path d="
  M 278.00 154.00
  L 217.04 154.00
  Q 210.76 153.70 204.50 153.21
  Q 199.94 152.86 195.78 151.00
  Q 177.28 142.70 173.36 122.63
  Q 172.88 120.14 173.08 112.77
  Q 173.25 106.72 174.36 103.03
  Q 179.77 85.12 196.51 79.05
  C 204.63 76.11 215.47 76.31 223.55 78.40
  Q 226.58 79.18 230.67 81.50
  Q 231.85 82.17 232.05 81.04
  Q 232.10 80.77 231.71 79.94
  Q 228.49 73.17 221.71 68.33
  C 199.75 52.64 167.89 55.77 144.63 66.14
  C 130.43 72.47 117.28 82.35 104.72 92.96
  Q 96.21 100.16 74.00 121.00
  Q 68.86 125.82 57.65 134.88
  Q 47.16 143.36 34.48 147.68
  Q 26.87 150.26 18.20 152.39
  A 0.52 0.52 0.0 0 1 17.57 151.77
  Q 17.74 151.05 18.50 150.51
  Q 20.94 148.77 30.64 143.38
  Q 38.29 139.13 50.62 129.35
  Q 60.27 121.69 72.04 110.78
  Q 85.10 98.68 103.35 81.34
  Q 119.00 66.48 135.89 52.14
  Q 147.52 42.27 160.17 33.42
  Q 185.27 15.86 215.07 7.57
  Q 224.65 4.90 233.50 3.94
  Q 251.44 2.00 269.01 3.01
  C 277.62 3.51 286.66 4.68 294.41 7.40
  C 310.16 12.93 323.35 23.84 332.47 37.82
  Q 333.49 39.38 331.79 38.61
  Q 330.06 37.82 326.49 36.07
  Q 320.57 33.18 314.23 31.81
  Q 296.80 28.05 279.78 31.77
  Q 273.60 33.11 268.04 36.79
  Q 250.65 48.29 240.66 65.46
  Q 238.21 69.68 236.20 77.26
  Q 234.80 82.57 235.18 87.44
  Q 235.38 89.94 235.16 94.33
  Q 235.00 97.56 235.77 101.14
  Q 237.64 109.83 239.80 115.22
  Q 245.19 128.70 255.40 138.12
  Q 258.88 141.33 266.46 146.38
  Q 272.17 150.19 278.00 154.00
  Z"
/>
<rect x="661.36" y="30.64" width="9.02" height="110.60" rx="0.55"/>
<rect x="1162.77" y="30.67" width="8.88" height="110.58" rx="0.39"/>
<rect x="869.21" y="30.64" width="8.94" height="110.58" rx="0.56"/>
<path d="
  M 1055.05 54.13
  Q 1043.12 42.74 1028.50 46.95
  Q 1017.65 50.07 1016.64 61.11
  C 1015.77 70.60 1024.06 76.30 1031.57 79.94
  Q 1043.58 85.75 1048.99 88.93
  Q 1052.59 91.04 1056.74 95.44
  Q 1061.75 100.74 1063.24 108.25
  Q 1066.48 124.60 1054.58 135.33
  C 1049.49 139.92 1041.18 142.88 1033.96 143.11
  Q 1017.60 143.63 1004.29 133.45
  C 1003.32 132.70 1002.16 131.32 1001.23 130.48
  Q 1000.55 129.88 1001.11 129.17
  L 1005.75 123.19
  Q 1006.31 122.46 1006.92 123.15
  C 1014.15 131.26 1025.42 135.36 1036.30 133.95
  Q 1042.03 133.21 1046.11 130.22
  Q 1054.65 123.96 1053.26 112.45
  C 1052.16 103.37 1045.97 98.31 1038.47 94.04
  Q 1038.44 94.02 1022.56 85.97
  Q 1019.01 84.17 1014.41 80.34
  Q 1007.94 74.96 1006.77 66.55
  C 1004.87 52.89 1013.13 41.64 1026.29 38.32
  Q 1045.16 33.57 1060.57 46.96
  A 0.27 0.26 -50.8 0 1 1060.60 47.32
  L 1055.34 54.10
  Q 1055.21 54.28 1055.05 54.13
  Z"
/>
<path d="
  M 323.27 55.50
  Q 308.35 43.46 287.88 47.02
  Q 267.79 50.51 258.31 68.85
  Q 254.15 76.90 253.44 87.07
  C 252.29 103.64 259.38 118.24 273.08 127.23
  C 288.93 137.62 311.78 136.75 326.43 124.06
  Q 326.68 123.85 326.86 124.11
  L 331.21 130.20
  Q 331.34 130.37 331.17 130.52
  Q 315.41 143.91 295.04 143.14
  C 276.80 142.45 260.54 133.65 250.91 118.20
  C 241.30 102.78 240.31 82.54 248.66 66.17
  Q 257.88 48.07 276.32 41.09
  Q 296.64 33.39 316.58 41.26
  Q 323.83 44.13 330.50 50.05
  A 0.75 0.75 0.0 0 1 330.59 51.07
  L 326.01 56.99
  Q 325.60 57.51 325.10 57.07
  Q 323.75 55.89 323.27 55.50
  Z"
/>
<path d="
  M 751.52 39.29
  Q 771.67 39.29 785.30 39.33
  Q 785.94 39.33 785.94 39.96
  L 785.94 47.42
  Q 785.94 48.03 785.33 48.03
  L 756.74 48.03
  A 0.36 0.36 0.0 0 0 756.38 48.39
  L 756.38 140.69
  Q 756.38 141.14 755.94 141.16
  Q 753.94 141.29 751.50 141.29
  Q 749.05 141.29 747.05 141.16
  Q 746.61 141.14 746.61 140.69
  L 746.66 48.39
  A 0.36 0.36 0.0 0 0 746.30 48.03
  L 717.71 48.01
  Q 717.10 48.01 717.10 47.40
  L 717.10 39.94
  Q 717.10 39.31 717.74 39.31
  Q 731.37 39.28 751.52 39.29
  Z"
/>
<circle cx="800.22" cy="56.62" r="6.91"/>
<circle cx="1315.45" cy="56.61" r="6.91"/>
<path d="
  M 554.35 84.31
  L 543.26 84.34
  A 0.47 0.47 0.0 0 1 542.79 83.87
  L 542.81 77.01
  A 0.47 0.47 0.0 0 1 543.28 76.54
  L 554.33 76.53
  A 0.47 0.47 0.0 0 0 554.80 76.06
  L 554.77 53.88
  A 0.47 0.47 0.0 0 1 555.24 53.41
  L 563.24 53.33
  A 0.47 0.47 0.0 0 1 563.71 53.80
  L 563.72 76.06
  A 0.47 0.47 0.0 0 0 564.19 76.53
  L 578.99 76.52
  A 0.47 0.47 0.0 0 1 579.46 76.99
  L 579.49 83.88
  A 0.47 0.47 0.0 0 1 579.02 84.35
  L 564.17 84.29
  A 0.47 0.47 0.0 0 0 563.70 84.76
  L 563.70 140.84
  A 0.47 0.47 0.0 0 1 563.23 141.31
  L 555.26 141.28
  A 0.47 0.47 0.0 0 1 554.79 140.81
  L 554.82 84.78
  A 0.47 0.47 0.0 0 0 554.35 84.31
  Z"
/>
<path d="
  M 830.77 75.98
  L 830.74 53.87
  A 0.52 0.52 0.0 0 1 831.26 53.35
  L 839.27 53.35
  A 0.52 0.52 0.0 0 1 839.79 53.87
  L 839.75 76.02
  A 0.52 0.52 0.0 0 0 840.27 76.54
  L 854.97 76.46
  A 0.52 0.52 0.0 0 1 855.49 76.98
  L 855.51 83.86
  A 0.52 0.52 0.0 0 1 854.99 84.38
  L 840.28 84.32
  A 0.52 0.52 0.0 0 0 839.76 84.84
  L 839.74 140.72
  A 0.52 0.52 0.0 0 1 839.23 141.24
  L 831.26 141.33
  A 0.52 0.52 0.0 0 1 830.73 140.81
  L 830.74 84.83
  A 0.52 0.52 0.0 0 0 830.22 84.31
  L 819.25 84.33
  A 0.52 0.52 0.0 0 1 818.73 83.81
  L 818.79 77.07
  A 0.52 0.52 0.0 0 1 819.30 76.56
  L 830.25 76.50
  A 0.52 0.52 0.0 0 0 830.77 75.98
  Z"
/>
<path d="
  M 1281.71 84.83
  L 1281.70 140.78
  A 0.52 0.52 0.0 0 1 1281.18 141.30
  L 1273.28 141.31
  A 0.52 0.52 0.0 0 1 1272.76 140.79
  L 1272.74 84.85
  A 0.52 0.52 0.0 0 0 1272.22 84.33
  L 1261.24 84.32
  A 0.52 0.52 0.0 0 1 1260.72 83.79
  L 1260.80 77.08
  A 0.52 0.52 0.0 0 1 1261.32 76.56
  L 1272.27 76.46
  A 0.52 0.52 0.0 0 0 1272.79 75.93
  L 1272.77 53.87
  A 0.52 0.52 0.0 0 1 1273.29 53.35
  L 1281.18 53.32
  A 0.52 0.52 0.0 0 1 1281.70 53.84
  L 1281.70 75.96
  A 0.52 0.52 0.0 0 0 1282.22 76.48
  L 1296.90 76.49
  A 0.52 0.52 0.0 0 1 1297.42 77.01
  L 1297.47 83.83
  A 0.52 0.52 0.0 0 1 1296.95 84.35
  L 1282.23 84.31
  A 0.52 0.52 0.0 0 0 1281.71 84.83
  Z"
/>
<path d="
  M 502.95 93.92
  Q 504.05 96.96 508.25 99.12
  Q 511.77 100.93 521.65 105.63
  Q 524.20 106.84 528.23 110.48
  C 532.59 114.42 534.36 120.64 533.39 125.97
  Q 530.88 139.73 516.43 142.57
  Q 500.73 145.66 488.12 133.83
  Q 487.87 133.58 488.08 133.30
  L 492.58 127.51
  Q 492.70 127.36 492.82 127.50
  Q 501.41 136.84 513.24 135.48
  C 518.47 134.89 522.52 131.98 523.83 126.87
  C 525.64 119.84 521.86 115.66 516.15 112.65
  C 505.32 106.93 487.88 101.65 494.65 85.14
  C 498.38 76.05 509.39 73.29 518.53 75.06
  Q 525.96 76.50 531.80 81.56
  A 0.67 0.67 0.0 0 1 531.95 82.40
  L 528.57 88.26
  A 0.41 0.41 0.0 0 1 527.93 88.34
  C 522.56 82.87 512.12 78.98 505.65 84.41
  Q 500.94 88.35 502.95 93.92
  Z"
/>
<path d="
  M 1526.06 125.54
  C 1527.20 119.58 1523.30 115.49 1518.40 112.86
  Q 1515.08 111.07 1506.09 106.68
  C 1503.30 105.32 1499.12 102.15 1497.40 99.63
  Q 1493.55 93.97 1495.83 86.80
  C 1498.84 77.37 1508.84 73.60 1518.05 74.68
  Q 1526.75 75.70 1533.36 81.25
  A 1.19 1.17 -55.2 0 1 1533.62 82.74
  L 1530.75 87.71
  Q 1530.24 88.60 1529.49 87.89
  C 1524.38 83.12 1516.66 80.20 1509.91 82.92
  Q 1505.10 84.85 1504.42 89.92
  C 1503.68 95.48 1508.10 98.31 1512.39 100.32
  C 1523.71 105.62 1537.56 110.50 1535.12 126.19
  C 1533.41 137.17 1524.15 142.84 1513.58 143.17
  Q 1500.30 143.58 1490.15 133.99
  A 0.58 0.58 0.0 0 1 1490.09 133.22
  L 1494.43 127.64
  A 0.26 0.26 0.0 0 1 1494.83 127.62
  Q 1503.16 136.71 1514.92 135.47
  Q 1524.34 134.48 1526.06 125.54
  Z"
/>
<path d="
  M 408.6110 107.6961
  A 34.50 34.37 -1.9 0 1 375.2695 143.1911
  A 34.50 34.37 -1.9 0 1 339.6490 109.9839
  A 34.50 34.37 -1.9 0 1 372.9905 74.4889
  A 34.50 34.37 -1.9 0 1 408.6110 107.6961
  Z
  M 377.0824 135.1746
  A 26.47 25.30 83.4 0 0 399.1723 105.9721
  A 26.47 25.30 83.4 0 0 370.9976 82.5854
  A 26.47 25.30 83.4 0 0 348.9077 111.7879
  A 26.47 25.30 83.4 0 0 377.0824 135.1746
  Z"
/>
<path d="
  M 466.19 104.83
  Q 466.76 98.46 465.84 93.40
  Q 464.97 88.64 460.34 85.50
  C 452.68 80.29 439.43 82.45 431.33 86.02
  A 0.62 0.62 0.0 0 1 430.54 85.77
  L 427.35 80.23
  Q 426.94 79.52 427.68 79.19
  Q 441.54 73.00 456.81 75.26
  Q 464.30 76.37 468.31 79.98
  C 474.32 85.39 475.12 92.79 475.12 100.50
  Q 475.14 114.56 475.11 132.51
  Q 475.11 134.00 474.19 134.71
  Q 466.17 140.88 455.95 142.37
  Q 445.49 143.89 437.76 142.00
  C 427.30 139.45 420.10 132.02 419.30 121.26
  C 418.56 111.13 425.13 103.87 434.33 100.54
  Q 448.47 95.43 461.79 102.13
  C 463.16 102.83 464.41 104.08 465.76 105.03
  Q 466.15 105.30 466.19 104.83
  Z
  M 431.97 129.27
  C 439.32 138.33 455.89 136.39 464.77 131.17
  C 466.30 130.27 466.31 129.45 466.32 127.75
  Q 466.32 123.57 466.28 114.94
  C 466.27 112.93 465.39 112.25 463.94 111.19
  Q 457.88 106.76 450.79 105.81
  C 442.33 104.69 430.18 107.85 428.78 117.74
  Q 427.86 124.20 431.97 129.27
  Z"
/>
<path d="
  M 632.16 104.97
  Q 632.27 99.76 632.10 95.68
  Q 631.86 89.96 627.11 86.13
  C 619.50 80.00 605.38 82.43 597.09 86.09
  Q 596.70 86.26 596.49 85.89
  L 593.21 80.23
  Q 592.82 79.54 593.54 79.22
  C 606.87 73.07 635.66 70.00 640.01 89.86
  Q 641.07 94.71 641.02 99.25
  Q 640.95 105.48 641.11 130.50
  Q 641.12 132.14 640.71 133.82
  Q 640.60 134.31 640.21 134.62
  Q 636.27 137.77 632.02 139.50
  C 617.85 145.27 594.09 145.85 586.87 128.41
  C 584.37 122.35 584.37 114.96 588.21 109.44
  C 594.77 100.04 607.65 97.11 618.38 98.90
  Q 626.00 100.18 631.80 105.13
  A 0.22 0.22 0.0 0 0 632.16 104.97
  Z
  M 628.96 110.50
  Q 621.26 105.85 614.62 105.59
  C 606.90 105.29 596.43 108.41 594.77 117.04
  C 593.03 126.09 599.38 133.46 608.26 134.99
  Q 620.80 137.14 631.32 130.77
  A 1.77 1.77 0.0 0 0 632.18 129.27
  Q 632.20 126.27 632.28 115.73
  Q 632.30 112.52 628.96 110.50
  Z"
/>
<path d="
  M 905.01 109.50
  A 0.30 0.29 90.0 0 0 904.72 109.80
  C 904.54 125.53 915.43 135.17 930.79 135.25
  Q 943.03 135.31 951.06 127.37
  Q 951.77 126.68 952.34 127.48
  L 955.33 131.67
  Q 955.87 132.43 955.23 133.10
  Q 949.25 139.35 940.59 141.56
  C 927.07 145.00 912.26 142.53 903.35 131.82
  C 895.67 122.60 893.92 110.12 896.86 98.55
  C 900.48 84.26 911.81 75.38 926.77 74.71
  C 947.85 73.77 958.20 89.80 957.72 109.00
  A 0.52 0.51 0.6 0 1 957.20 109.50
  L 905.01 109.50
  Z
  M 905.54 102.25
  L 948.23 102.25
  A 0.29 0.28 -4.2 0 0 948.52 101.93
  Q 947.79 96.81 945.51 92.41
  C 940.52 82.78 928.76 80.35 919.25 83.99
  Q 907.02 88.69 905.20 101.86
  A 0.35 0.34 -86.3 0 0 905.54 102.25
  Z"
/>
<path d="
  M 1145.5398 108.7195
  A 34.51 34.36 -0.2 0 1 1111.1499 143.1998
  A 34.51 34.36 -0.2 0 1 1076.5202 108.9605
  A 34.51 34.36 -0.2 0 1 1110.9101 74.4802
  A 34.51 34.36 -0.2 0 1 1145.5398 108.7195
  Z
  M 1113.7687 135.1852
  A 26.47 25.29 83.8 0 0 1136.0521 106.1387
  A 26.47 25.29 83.8 0 0 1108.0513 82.5548
  A 26.47 25.29 83.8 0 0 1085.7679 111.6013
  A 26.47 25.29 83.8 0 0 1113.7687 135.1852
  Z"
/>
<path d="
  M 1405.4088 107.1547
  A 34.50 34.36 -2.8 0 1 1372.6285 143.1590
  A 34.50 34.36 -2.8 0 1 1336.4912 110.5253
  A 34.50 34.36 -2.8 0 1 1369.2715 74.5210
  A 34.50 34.36 -2.8 0 1 1405.4088 107.1547
  Z
  M 1373.6158 135.1950
  A 26.46 25.29 84.0 0 0 1396.0015 106.2365
  A 26.46 25.29 84.0 0 0 1368.0842 82.5650
  A 26.46 25.29 84.0 0 0 1345.6985 111.5235
  A 26.46 25.29 84.0 0 0 1373.6158 135.1950
  Z"
/>
<path d="
  M 1431.31 82.60
  Q 1431.69 82.41 1433.44 81.05
  C 1440.64 75.43 1450.09 73.66 1459.05 75.19
  Q 1471.51 77.33 1474.84 89.17
  Q 1476.16 93.88 1476.13 99.75
  Q 1476.12 102.31 1476.05 140.70
  Q 1476.05 141.30 1475.45 141.30
  L 1467.80 141.30
  Q 1467.13 141.30 1467.13 140.63
  Q 1467.16 120.16 1467.13 102.31
  C 1467.12 91.23 1463.76 83.59 1451.50 83.15
  Q 1441.38 82.78 1433.03 89.54
  C 1431.34 90.90 1430.79 91.45 1430.78 93.83
  Q 1430.72 114.00 1430.80 141.01
  A 0.28 0.28 0.0 0 1 1430.52 141.29
  L 1422.23 141.29
  A 0.38 0.38 0.0 0 1 1421.85 140.91
  L 1421.85 77.84
  Q 1421.85 76.34 1423.27 76.34
  L 1429.37 76.34
  Q 1430.79 76.34 1430.79 77.76
  L 1430.79 82.28
  Q 1430.79 82.86 1431.31 82.60
  Z"
/>
<rect x="795.58" y="76.38" width="8.96" height="64.84" rx="0.42"/>
<path d="
  M 1237.63 130.43
  A 1.70 1.68 -18.7 0 0 1238.31 129.08
  L 1238.31 76.82
  Q 1238.31 76.41 1238.72 76.41
  L 1247.01 76.41
  A 0.31 0.31 0.0 0 1 1247.32 76.72
  L 1247.32 133.49
  A 1.07 1.05 -20.9 0 1 1246.95 134.29
  Q 1238.37 141.69 1225.37 142.86
  C 1216.56 143.65 1207.28 142.57 1200.62 136.86
  Q 1194.78 131.85 1193.24 124.19
  Q 1192.73 121.63 1192.70 110.25
  Q 1192.66 93.44 1192.74 76.91
  Q 1192.75 76.41 1193.25 76.41
  L 1201.19 76.41
  A 0.45 0.45 0.0 0 1 1201.64 76.86
  Q 1201.71 110.90 1201.64 114.50
  C 1201.46 124.03 1204.53 132.45 1215.02 134.53
  C 1221.90 135.90 1231.66 134.91 1237.63 130.43
  Z"
/>
<rect x="1310.78" y="76.39" width="8.98" height="64.84" rx="0.40"/>
</g>
<path fill="#b4b6b8" d="
  M 138.43 154.00
  L 62.50 154.00
  L 61.78 153.75
  Q 61.14 153.53 61.76 153.26
  Q 63.22 152.63 63.57 152.33
  Q 76.11 141.40 90.51 128.29
  C 94.11 125.01 96.65 123.09 101.54 119.30
  Q 110.50 112.37 121.44 108.91
  Q 126.62 107.28 131.49 107.05
  Q 133.09 106.97 142.78 107.06
  Q 144.49 107.08 148.48 108.57
  C 152.16 109.94 155.16 113.05 158.26 115.24
  Q 159.71 116.26 157.98 115.86
  Q 155.12 115.20 152.62 114.63
  C 143.38 112.51 133.33 118.47 130.04 127.28
  Q 126.74 136.11 131.84 144.99
  Q 133.30 147.53 136.49 151.42
  Q 136.92 151.93 137.64 152.49
  Q 139.10 153.62 138.43 154.00
  Z"
/>
</svg>
