<?xml version="1.0" encoding="UTF-8"?>
<!DOCTYPE svg PUBLIC "-//W3C//DTD SVG 1.1//EN" "http://www.w3.org/Graphics/SVG/1.1/DTD/svg11.dtd">
<svg xmlns="http://www.w3.org/2000/svg" version="1.1" width="367px" height="286px" style="shape-rendering:geometricPrecision; text-rendering:geometricPrecision; image-rendering:optimizeQuality; fill-rule:evenodd; clip-rule:evenodd" xmlns:xlink="http://www.w3.org/1999/xlink">
<g><path style="opacity:0.973" fill="#8c52ff" d="M 135.5,-0.5 C 167.5,-0.5 199.5,-0.5 231.5,-0.5C 276.245,93.3224 321.245,186.989 366.5,280.5C 366.5,282.167 366.5,283.833 366.5,285.5C 335.5,285.5 304.5,285.5 273.5,285.5C 255.945,249.059 238.945,212.393 222.5,175.5C 223.976,173.382 225.976,171.882 228.5,171C 238.819,167.174 249.152,163.508 259.5,160C 256.043,158.315 253.043,158.648 250.5,161C 217.116,164.595 185.449,173.928 155.5,189C 119.007,211.368 95.6738,243.535 85.5,285.5C 56.8333,285.5 28.1667,285.5 -0.5,285.5C -0.5,284.167 -0.5,282.833 -0.5,281.5C 12.3876,250.432 30.7209,222.932 54.5,199C 86.9128,170.293 124.913,154.627 168.5,152C 181.742,151.824 194.908,151.324 208,150.5C 191.184,112.19 173.184,74.1905 154,36.5C 139.049,64.7348 124.883,93.4015 111.5,122.5C 98.1951,128.16 84.8618,133.826 71.5,139.5C 70.8333,139.167 70.1667,138.833 69.5,138.5C 91.5061,92.137 113.506,45.8036 135.5,-0.5 Z"/></g>
</svg>
