<?xml version="1.0" standalone="no"?>
<!DOCTYPE svg PUBLIC "-//W3C//DTD SVG 20010904//EN"
 "http://www.w3.org/TR/2001/REC-SVG-20010904/DTD/svg10.dtd">
<svg version="1.0" xmlns="http://www.w3.org/2000/svg"
 width="500.000000pt" height="500.000000pt" viewBox="0 0 500.000000 500.000000"
 preserveAspectRatio="xMidYMid meet">

<g transform="translate(0.000000,500.000000) scale(0.100000,-0.100000)"
fill="#000000" stroke="none">
<path d="M2050 3378 c-100 -211 -185 -389 -188 -396 -3 -9 16 -3 49 13 29 15
81 38 114 50 l60 23 120 251 c65 138 123 247 127 243 7 -7 318 -651 318 -658
0 -2 -53 -4 -117 -4 -290 -1 -521 -73 -704 -221 -146 -118 -267 -288 -352
-491 l-16 -38 239 0 239 0 16 58 c42 150 153 320 270 415 131 106 355 192 572
219 50 7 90 16 87 20 -6 10 14 9 41 -1 17 -7 13 -10 -24 -21 -73 -20 -181 -62
-181 -70 0 -5 65 -145 145 -312 l145 -303 260 -3 c143 -1 260 -1 260 1 0 1
-172 363 -383 802 l-383 800 -265 3 -266 2 -183 -382z m668 -485 c-10 -2 -28
-2 -40 0 -13 2 -5 4 17 4 22 1 32 -1 23 -4z m75 -10 c-7 -2 -21 -2 -30 0 -10
3 -4 5 12 5 17 0 24 -2 18 -5z"/>
</g>
</svg>
